<?xml version="1.0" encoding="UTF-8" standalone="no"?>
<svg
   xmlns:dc="http://purl.org/dc/elements/1.1/"
   xmlns:cc="http://creativecommons.org/ns#"
   xmlns:rdf="http://www.w3.org/1999/02/22-rdf-syntax-ns#"
   xmlns:svg="http://www.w3.org/2000/svg"
   xmlns="http://www.w3.org/2000/svg"
   xmlns:sodipodi="http://sodipodi.sourceforge.net/DTD/sodipodi-0.dtd"
   xmlns:inkscape="http://www.inkscape.org/namespaces/inkscape"
   width="107.73275mm"
   height="103.67804mm"
   viewBox="0 0 107.73275 103.67804"
   version="1.1"
   id="svg8"
   inkscape:version="1.0.1 (0767f8302a, 2020-10-17)"
   sodipodi:docname="gota.svg">
  <defs
     id="defs2" />
  <sodipodi:namedview
     id="base"
     pagecolor="#ffffff"
     bordercolor="#666666"
     borderopacity="1.0"
     inkscape:pageopacity="0.0"
     inkscape:pageshadow="2"
     inkscape:zoom="1"
     inkscape:cx="153.59959"
     inkscape:cy="234.13223"
     inkscape:document-units="mm"
     inkscape:current-layer="layer1"
     inkscape:document-rotation="0"
     showgrid="false"
     fit-margin-top="1"
     fit-margin-left="1"
     fit-margin-right="1"
     fit-margin-bottom="1"
     inkscape:window-width="1366"
     inkscape:window-height="713"
     inkscape:window-x="0"
     inkscape:window-y="27"
     inkscape:window-maximized="1" />
  <metadata
     id="metadata5">
    <rdf:RDF>
      <cc:Work
         rdf:about="">
        <dc:format>image/svg+xml</dc:format>
        <dc:type
           rdf:resource="http://purl.org/dc/dcmitype/StillImage" />
        <dc:title></dc:title>
      </cc:Work>
    </rdf:RDF>
  </metadata>
  <g
     inkscape:label="Layer 1"
     inkscape:groupmode="layer"
     id="layer1"
     transform="translate(82.024121,-90.294483)">
    <g
       id="g928">
      <path
         d="m -32.864523,192.97252 c -23.461136,-0.39979 -39.468957,-13.59958 -46.095711,-34.61306 -3.802062,-12.05653 -2.153179,-23.75456 3.322108,-34.81229 5.529792,-11.16806 13.778178,-20.08505 25.008417,-25.796872 4.690798,-2.385483 9.719204,-4.1275 14.657917,-5.991489 1.925902,-0.726546 3.971129,-0.547952 5.997309,0.171979 2.573543,0.898827 5.292883,1.306817 8.016883,1.202796 6.00366,-0.202671 11.36729,1.719792 16.3385503,4.781021 3.35041,2.062427 6.96727,3.730625 9.96764,6.342325 9.3226897,8.11654 15.8049797,18.08251 19.4468797,29.89792 1.38192,4.44632 0.89747,8.9908 0.46699,13.48607 -0.24818,2.59054 -1.26101,5.15091 -1.66688,7.63535 -0.3175,1.93146 -1.89415,3.33375 -1.76979,4.62227 0.18785,1.9476 -0.60855,3.17871 -1.3933,4.53629 -7.37791,12.76985 -18.93701971,20.01387 -32.55592,24.51787 -4.82335,1.59491 -9.71418,2.93159 -14.73941,3.68512 -1.940453,0.29104 -3.929593,0.26961 -5.001683,0.3347 z M -63.484755,110.2127 c 4.394465,-3.75708 9.476846,-6.65242 13.473642,-10.907181 -5.072592,2.907771 -9.873985,6.155001 -13.473642,10.907181 z m 71.3316653,66.04371 0.43974,0.36301 c 1.9626497,-1.41066 3.6271097,-3.19535 4.8976997,-5.25145 -0.94271,0.69109 -1.69624,1.56712 -2.52227,2.36828 -0.9038197,0.87604 -1.8737797,1.68222 -2.8151697,2.52016 z M -65.842986,112.42118 c -1.048015,0.77338 -1.782762,1.46923 -2.202656,2.45851 -0.114829,0.2704 -0.273315,0.57944 0.04815,0.77179 0.19808,0.0517 0.406891,0.0448 0.601133,-0.0198 0.02858,-1.24672 2.042848,-1.39039 1.553369,-3.21046 z"
         id="path865"
         style="stroke-width:0.264583"
         sodipodi:nodetypes="cccccccccccccccccccccccccscccss" />
      <g
         id="g891"
         transform="matrix(1.3858256,0,0,1.3858256,21.939409,-46.326823)">
        <path
           d="m -44.436122,126.08055 c 1.094656,2.20584 1.699686,4.52362 1.585899,7.0132 -0.0489,1.0697 0.0071,2.14494 -0.06669,3.21234 -0.03115,0.45715 -0.29916,0.89355 -0.411775,1.35113 -0.577857,2.34776 -1.510124,4.50359 -3.412798,6.09602 -2.598525,2.175 -5.546534,3.35941 -8.996223,3.01379 -2.70181,-0.27058 -4.650334,-1.86581 -5.850552,-4.06819 -2.802077,-5.14168 -3.142064,-10.57709 -1.109031,-16.09833 a 16.399518,16.399518 0 0 1 1.544426,-3.15725 c 1.571674,-2.45671 3.93436,-3.48238 6.791208,-3.36186 1.923642,0.081 3.709772,0.64471 5.266203,1.84245 0.428165,0.32955 0.91807,0.5801 1.385236,0.85752 1.373917,0.81571 2.544433,1.83198 3.274094,3.29918 z m -12.701889,-3.01653 c -0.19856,0.31612 -0.406755,0.62048 -0.58736,0.94039 -0.62671,1.11033 -1.377425,2.17525 -1.82589,3.35444 -0.420845,1.10666 -0.522818,2.3354 -0.7559,3.51225 -0.111495,0.56297 -0.290139,1.13072 -0.286686,1.6954 0.01696,2.71957 0.112499,5.46032 1.346427,7.94545 0.640452,1.28996 1.565701,2.45456 2.475825,3.58434 0.257021,0.31897 0.941129,0.49454 1.384337,0.42945 2.555312,-0.37637 4.810452,-1.42775 6.360227,-3.55405 2.904883,-3.98524 3.127313,-8.42714 1.865444,-13.01232 -0.595267,-2.16305 -1.747005,-3.93991 -4.224238,-4.34512 -0.473202,-0.0774 -0.954697,-0.11022 -1.423773,-0.20571 -0.232572,-0.0474 -0.576628,-0.13516 -0.646254,-0.29928 -0.444499,-1.05031 -1.157444,-1.10116 -2.048018,-0.64031 -0.366736,0.1898 -0.716786,0.4173 -1.096495,0.57441 -0.176425,0.073 -0.405619,0.0185 -0.537671,0.0206 z m -2.832255,0.16546 c -0.973985,0.75241 -2.066503,2.84569 -1.915644,3.65617 z"
           id="path855"
           style="fill:#ffffff;stroke-width:0.088122" />
        <path
           d="m -27.863159,126.08055 c -1.09465,2.20584 -1.699676,4.52362 -1.585891,7.0132 0.04891,1.0697 -0.0071,2.14494 0.0667,3.21234 0.03115,0.45715 0.299158,0.89355 0.411774,1.35113 0.577852,2.34776 1.510117,4.50359 3.412781,6.09602 2.598513,2.175 5.546507,3.35941 8.99618,3.01379 2.701798,-0.27058 4.650313,-1.86581 5.850525,-4.06819 2.8020635,-5.14168 3.1420495,-10.57709 1.1090245,-16.09833 a 16.39944,16.399518 0 0 0 -1.5444175,-3.15725 c -1.571667,-2.45671 -3.934342,-3.48238 -6.791177,-3.36186 -1.923633,0.081 -3.709753,0.64471 -5.266177,1.84245 -0.428163,0.32955 -0.918066,0.5801 -1.385229,0.85752 -1.373911,0.81571 -2.544421,1.83198 -3.27408,3.29918 z m 12.70183,-3.01653 c 0.198559,0.31612 0.406752,0.62048 0.587356,0.94039 0.626708,1.11033 1.377419,2.17525 1.825883,3.35444 0.420843,1.10666 0.522814,2.3354 0.755896,3.51225 0.111498,0.56297 0.290137,1.13072 0.286684,1.6954 -0.01688,2.71957 -0.112493,5.46032 -1.346421,7.94545 -0.640448,1.28996 -1.565694,2.45456 -2.475813,3.58434 -0.25702,0.31897 -0.941125,0.49454 -1.38433,0.42945 -2.555301,-0.37637 -4.81043,-1.42775 -6.360197,-3.55405 -2.904869,-3.98524 -3.127299,-8.42714 -1.865436,-13.01232 0.595265,-2.16305 1.746998,-3.93991 4.224218,-4.34512 0.4732,-0.0774 0.954694,-0.11022 1.423767,-0.20571 0.232572,-0.0474 0.576626,-0.13516 0.646251,-0.29928 0.444497,-1.05031 1.157438,-1.10116 2.048008,-0.64031 0.366735,0.1898 0.716783,0.4173 1.096491,0.57441 0.176417,0.073 0.405616,0.0185 0.537667,0.0206 z m 2.832241,0.16546 c 0.973981,0.75241 2.066494,2.84569 1.915635,3.65617 z"
           id="path867"
           style="fill:#ffffff;stroke-width:0.0881217" />
      </g>
    </g>
  </g>
</svg>
