<?xml version="1.0" encoding="UTF-8"?><svg id="Layer_0_Image" data-name="Layer 0 Image" xmlns="http://www.w3.org/2000/svg" viewBox="0 0 800 600" x="0px" y="0px" width="800px" height="600px" version="1.1" xmlns:xlink="http://www.w3.org/1999/xlink"><title>1</title><path d="M552.608,531.861c4.341,10.332,8.558,19.822,12.252,29.513,1.029,2.7,3.756,7.122.124,8.69-4,1.727-6.282-2.972-7.83-6.036-8.338-16.506-16.261-33.221-24.551-49.753-25.026-49.907-53.057-98.11-82.095-145.777-38.275-62.828-81.629-122.175-123.589-182.489-22.172-31.87-45.945-62.669-65.311-96.446a116.358,116.358,0,0,1-11.8-29.159c-4.435-17.313,3.62-28.886,21.261-30.12,9.342-.653,18.851-2.1,27.731,2.748,4.867,2.655,8.71,5.291,4.939,11.764-3.2,5.49-.685,10.56.88,16.37,5.622,20.877,19.889,37.2,32.929,51.94,16.653,18.822,32.058,38.792,47.7,58.215,18.329,22.758,35.6,46.72,52.43,70.854,20.878,29.931,38.711,61.785,60.025,91.431,6.3,8.764,13.358,18.654,13.659,30.768a1.175,1.175,0,0,0,.562.9c13.365,4.462,6.387,23.354,19.777,27.933,1.4.48,3.195,2.714,3.159,4.091-.457,17.493,14.27,28.779,18.06,44.6,1.362,5.687,3.785,11.858,10.333,14.584,1.179.49,2.654,2.076,2.7,3.209.632,15.348,14.138,26.272,14.271,41.759a4.088,4.088,0,0,0,1.121,2.981c12.545,8.494,3.53,25.818,14.735,35.4,3.6,3.078-6.04,18.83-12.042,18.259-6.228-.591-5.825,1.134-4.924,5.382.526,2.481,1.252,5.479-2.282,6.21-3.821.789-4.551-2.388-5.723-5.14-4.12-9.672-8.411-19.272-12.732-28.856C557.524,533.787,556.742,531.5,552.608,531.861Z"/><path d="M203.138,242.623c-.191-11.351,5.245-14.768,20.153-13.621,9.415.724,16.3,4.694,21.78,13.561,13.892,22.459,31.041,42.772,44.639,65.505,4.636,7.748,2.521,9.177-5.083,13.666-15.085,8.906-23.279-.513-31.911-9.453-15.366-15.914-30.745-31.878-41.74-51.376C207.406,254.575,204.155,248.136,203.138,242.623Z"/></svg>