<?xml version="1.0" encoding="UTF-8"?><svg id="Layer_0_Image" data-name="Layer 0 Image" xmlns="http://www.w3.org/2000/svg" viewBox="0 0 800 600" x="0px" y="0px" width="800px" height="600px" version="1.1" xmlns:xlink="http://www.w3.org/1999/xlink"><title>1</title><path d="M531.371,283.6c-1.758,27.889-8.963,54.1-24.207,77.921-6.55,10.235-12.1,21.12-18.882,31.191-2.9,4.316-8.01,7.084-11.713,10.942-19,19.794-40.394,35.691-68.128,40.545-37.878,6.631-73.57,1.544-105.511-21.426-25.017-17.989-35.115-44.722-34.414-73.176,1.636-66.429,29.135-121.775,80.442-164.5a186.1,186.1,0,0,1,33.092-22.265c29.385-15.226,58.424-11.9,85.816,5.494,18.445,11.711,32.8,27.385,41.3,47.987,2.338,5.668,5.731,10.91,8.748,16.287C526.788,248.412,532.525,265.041,531.371,283.6ZM423.658,181.885c-3.745,1.98-7.518,3.79-11.108,5.909-12.459,7.356-25.879,13.562-36.977,22.606-10.415,8.488-18.389,19.985-27.357,30.228-4.29,4.9-9.267,9.466-12.437,15.035-15.264,26.823-29.876,54.3-31.85,85.724-1.025,16.311,1.46,33.006,3.994,49.273.716,4.593,6.443,10.2,11.168,12.075,27.248,10.8,55.376,13.263,82.671,1.16,51.16-22.683,78.549-65.074,92.164-117.295,6.423-24.635,5.186-48.632-16.86-66.67-4.211-3.446-8.757-6.5-12.825-10.1-2.017-1.785-4.9-4.6-4.653-6.608,1.591-12.844-5.127-17.389-16.494-17.913-4.681-.216-9.412.035-14.035-.576C426.911,184.45,424.968,182.613,423.658,181.885Zm-28.773-14.444c-13.841,1.868-36.455,16.241-39.571,25.062Z"/></svg>