<?xml version="1.0" encoding="UTF-8"?><svg id="Layer_0_Image" data-name="Layer 0 Image" xmlns="http://www.w3.org/2000/svg" viewBox="0 0 800 600" x="0px" y="0px" width="800px" height="600px" version="1.1" xmlns:xlink="http://www.w3.org/1999/xlink"><title>1</title><path d="M397.034,435.27c-5.509,0-9.524.235-13.5-.043-12.412-.868-24.652-2.294-36.72-6.008-6.406-1.973-13.536-2.458-19.714-5.123-6.451-2.782-13.337-4.695-18.991-9.637a175.705,175.705,0,0,0-16.7-12.283,59.957,59.957,0,0,1-20.529-23.094c-5.741-2.733-5.645-9.368-9.064-13.761-3.235-4.158-4.428-9.8-6.719-14.571-1.711-3.562,1.168-8.3-3.3-10.651.863-4.686-1.623-8.884-2-13.287-.652-7.577-1.2-15.421.037-22.847,2.448-14.69,5.75-29.158,11.362-43.214,5.486-13.74,14.331-25.309,21.28-38.061a19.88,19.88,0,0,1,7.634-7.6c3.22-1.732,1.64-7.528,6.7-7.008,5.249-7.916,13.086-12.915,20.53-18.4,9.371-6.908,19.787-11.642,30.718-15.367a53.343,53.343,0,0,1,14.032-2.586,68.993,68.993,0,0,0,22.108-4.943c9.805-3.886,19.819-1.1,29.678-2.055,3.171,3.4,7.441,2.572,11.058,1.982,3.968-.647,6.424,2.294,10.021,2.551,12.308.88,23.612,5.853,35.144,9.787,12.592,4.3,23.908,11.081,34.886,18.429,16.232,10.863,29.163,24.677,37.155,42.714,3.026,6.828,4.846,13.994,6.73,21.254,3.062,11.8,1.881,23.513,1.552,35.16-.285,10.116-3.605,20.019-7.336,29.563q-4.221,10.791-8.5,21.558c-.248.621-1.277,1.1-1.268,1.629.179,10.584-7.12,16.957-13.347,23.94-1.412,1.584-3.329,2.988-4.079,4.851-5.049,12.53-16.318,18.857-26.173,26.546-10.223,7.977-21.91,13.594-33.535,19.063-10.106,4.755-21.1,7.1-32.044,9.63C414.513,435.6,405.051,434.754,397.034,435.27Zm-19.911-240c-1.917,0-2.785.264-3.348-.039-8.2-4.409-15.233-2.567-21.878,3.466-4.153,3.769-8.488,7.874-13.1,10.5-9.731,5.545-14.578,15.135-21.252,22.984-7.814,9.189-12.609,20.648-18,31.614-7.876,16.02-11.253,32.857-12.772,50.266-.982,11.258,1.328,22.168,3.982,33.122.873,3.606,3.649,6.857,2.76,10.894,4.565,1.794-.83,7.43,4.072,9.8,3.05,1.474,4.934,5.359,7.343,8.16a8.186,8.186,0,0,1,1.387,1.606c4.078,8.736,12.042,13.363,19.6,18.3a53.829,53.829,0,0,0,25.79,8.384c13.407.844,27.179,2.279,40.455-1.832,7.082-2.194,14.646-2.926,21.253-6.532,12.853-7.016,25.9-13.241,37.569-22.794a147.632,147.632,0,0,0,36.3-42.8,123.286,123.286,0,0,0,10.026-24.129,141.958,141.958,0,0,0,5.235-26.127c1.3-12.3-.887-24.471-4.323-36.271-1.772-6.084-3.854-12.449-7.431-17.537A57.971,57.971,0,0,0,475.444,211c-6.661-4.3-13.23-10-22.147-9.5-1.9-4.921-4.943.84-7.657-.892-5.12-3.268-11.071-4.742-16.878-6.592-3.6-1.148-6.975-.194-10.374-1.168-8.247-2.362-8.271-2.2-16.936-.087-.611.149-1.558-1.085-2.395-1.71l-4.443,4.155c-2.958-3.972-6.016-1.779-9.018-.315l-3.924-3.924Z"/></svg>